<svg width="800" height="600" xmlns="http://www.w3.org/2000/svg">
 <g>
  <title>Layer 1</title>
  <ellipse ry="106" rx="106.5" id="svg_1" cy="170.00001" cx="457.34002" stroke="#000" fill="#A0D58A"/>
  <path stroke="#000" id="svg_2" d="m427.29797,242.97951c-5.96698,-2.38138 1.81947,-7.14257 4.76737,-9.2487c1.98566,-1.62199 -11.37996,0.22753 -5.73711,-5.40305c6.19102,-4.59988 3.85238,-12.38185 -2.33596,-15.99921c-8.51645,-5.08912 -19.44361,-9.44469 -22.5899,-18.94746c-3.18137,-5.91885 4.3633,-12.15261 -0.48939,-17.49749c-3.90598,-6.93976 0.65731,-14.17648 3.49373,-20.60509c1.3044,-8.89268 -6.6861,-15.9251 -11.08039,-23.23092c-5.44112,-6.98161 -8.57763,-15.1168 -9.02834,-23.59463c-1.1833,-3.6187 0.12622,-9.23844 4.85136,-4.3597c9.89515,7.01214 20.75836,13.66582 27.6838,23.26376c1.31091,3.46685 6.56006,13.51478 6.85318,4.41581c0.13728,-12.5059 4.4532,-26.14545 15.51241,-34.52599c7.52228,-6.06604 11.57901,4.55535 11.93,9.95274c1.95791,10.61979 -1.28756,21.15105 -4.90415,31.18289c-1.32769,4.66212 -4.78532,17.43802 5.07589,12.72733c22.71668,-7.76184 50.23962,0.39018 65.03629,17.06426c6.8019,8.07338 9.78069,18.4458 9.71344,28.40507c-3.50245,5.85102 9.51102,-0.10961 4.79557,6.64071c-2.77593,7.47774 -10.61903,11.53526 -16.1129,17.17941c-5.59046,4.52274 -1.44251,14.19256 -10.6875,15.61739c-13.48957,3.68028 -27.65473,5.29237 -41.69785,6.23072c-7.85849,1.42484 -11.67225,-6.52775 -4.14017,-9.83384c3.61109,-4.92661 13.9423,-5.27186 17.01191,-6.05232c-7.33536,0.63518 -16.38169,-2.01448 -22.56281,2.00599c-3.74336,5.37804 -6.74147,12.45672 -14.59135,13.99177c-3.52772,0.86709 -7.15484,1.56244 -10.76712,0.62056l-0.00001,0z" fill="#000000"/>
  <path id="svg_4" d="m485.49108,92.79636c6.59672,-17.71951 32.44291,0 0,22.78223c-32.44291,-22.78223 -6.59672,-40.50175 0,-22.78223z" stroke="#000" fill="#C97A86"/>
 </g>

</svg>